# xmcd
#
# Track frame offsets:
#       150
#       18878
#       31040
#       43879
#       59017
#       72102
#       97139
#       116538
#       132312
#       144205
#       157745
#       180173
#       189986
#       201492
#       212920
#       231882
#       242715
#       260389
#       280292
#       292811
#       306442
#
# Disc length: 4352 seconds
#
# Revision: 0
# Processed by: cddbd v1.5.2PL0 Copyright (c) Steve Scherf et al.
# Submitted via: CD-DA_X-Tractor v0.24
#
DISCID=2e10fe15
DTITLE=Various Artist - Makin Whoopee - CD 1
DYEAR=2009
DGENRE=Love Songs
TTITLE0=Dr John - Makin Whoopee
TTITLE1=Aretha Franklin - Natural Woman
TTITLE2=Ray Charles - I Got A Woman
TTITLE3=Frankie Vali - Can't Take My Eyes Of You
TTITLE4=Carla Thomas - B-A-B-Y
TTITLE5=Grover Washington - Just The Two Of Us
TTITLE6=Randy Crawford - You MIght Need Somebody
TTITLE7=The Persuaders - Some Guys Have All The Luck
TTITLE8=Soul Brothers Six - Some Kind Of Wonderful
TTITLE9=Otis Reading and Carla Thomas - Tramp
TTITLE10=Bette Middler - When A Man Loves A Woman
TTITLE11=Patti Labelle - Groovy Kind Of Love
TTITLE12=Ben E King - Save The Last Dance
TTITLE13=Wilson Pickett - In The Midnnight Hour
TTITLE14=Charles Mingus - Sound Of Love
TTITLE15=Rufus Thomas - Birds And The Bees
TTITLE16=Duke Ellington - I Can't Stop Lovin You
TTITLE17=John Coltrane - Little Old Lady
TTITLE18=King Curtis - Spooky
TTITLE19=Dionne Warwick - I'll Never Fall In Love Again
TTITLE20=Anita Baker - Sweet Love
EXTD=
EXTT0=
EXTT1=
EXTT2=
EXTT3=
EXTT4=
EXTT5=
EXTT6=
EXTT7=
EXTT8=
EXTT9=
EXTT10=
EXTT11=
EXTT12=
EXTT13=
EXTT14=
EXTT15=
EXTT16=
EXTT17=
EXTT18=
EXTT19=
EXTT20=
PLAYORDER=
